<?xml version="1.0" standalone="no"?><!DOCTYPE svg PUBLIC "-//W3C//DTD SVG 1.1//EN" "http://www.w3.org/Graphics/SVG/1.1/DTD/svg11.dtd"><svg t="1587802240071" class="icon" viewBox="0 0 1024 1024" version="1.1" xmlns="http://www.w3.org/2000/svg" p-id="2722" xmlns:xlink="http://www.w3.org/1999/xlink" width="200" height="200"><defs><style type="text/css"></style></defs><path d="M512 64C264.6 64 64 264.6 64 512s200.6 448 448 448 448-200.6 448-448S759.4 64 512 64z m246.6 470.6c-5.8 5.8-13.8 9.4-22.6 9.4H544v192c0 17.6-14.4 32-32 32s-32-14.4-32-32V544H288c-17.6 0-32-14.4-32-32s14.4-32 32-32h192V288c0-17.6 14.4-32 32-32 8.8 0 16.8 3.6 22.6 9.4 5.8 5.8 9.4 13.8 9.4 22.6v192h192c17.6 0 32 14.4 32 32 0 8.8-3.6 16.8-9.4 22.6z" p-id="2723" fill="#8a8a8a"></path></svg>